<svg xmlns="http://www.w3.org/2000/svg" width="24" height="24" viewBox="0 0 24 24" fill="none">
<path d="M21.2446 15.9733C21.7284 16.4584 22 17.1155 22 17.8005C22 18.4856 21.7284 19.1427 21.2446 19.6277L20.4834 20.5042C13.6463 27.0468 -2.98765 10.4174 3.45543 3.55933L4.41534 2.72461C4.90084 2.25428 5.55198 1.99401 6.2279 2.0001C6.90382 2.0062 7.55017 2.27816 8.02711 2.75717C8.05298 2.78221 9.59885 4.79222 9.59885 4.79222C10.0562 5.27514 10.3107 5.91524 10.3097 6.58036C10.3088 7.24549 10.0525 7.88486 9.59384 8.3665L8.62726 9.58186C9.1623 10.8815 9.94881 12.0627 10.9416 13.0576C11.9344 14.0524 13.114 14.8413 14.4126 15.379L15.6354 14.4066C16.1161 13.9466 16.7554 13.6895 17.4207 13.6886C18.086 13.6876 18.726 13.943 19.208 14.4015C19.208 14.4015 21.2188 15.9483 21.2446 15.9733ZM20.0969 17.187C20.0969 17.187 18.0995 15.6495 18.0736 15.6244C17.9016 15.4539 17.6693 15.3582 17.4271 15.3582C17.185 15.3582 16.9526 15.4539 16.7806 15.6244C16.7581 15.6461 15.0745 16.9884 15.0745 16.9884C14.9611 17.0787 14.826 17.1379 14.6827 17.1601C14.5394 17.1824 14.3928 17.1669 14.2573 17.1152C12.5741 16.489 11.0452 15.5081 9.77422 14.2391C8.50327 12.9702 7.52 11.4428 6.89107 9.76049C6.83531 9.62314 6.81713 9.47342 6.83841 9.32672C6.85968 9.18001 6.91963 9.04162 7.01211 8.92577C7.01211 8.92577 8.35431 7.24464 8.37685 7.22293C8.54735 7.05097 8.64302 6.81861 8.64302 6.57644C8.64302 6.33427 8.54735 6.10191 8.37685 5.92995C8.35181 5.90491 6.81428 3.90574 6.81428 3.90574C6.63974 3.74924 6.41196 3.66542 6.17761 3.67148C5.94326 3.67753 5.7201 3.77299 5.55388 3.9383L4.59397 4.77302C-0.115431 10.4349 14.3016 24.0526 19.2622 19.3665L20.0235 18.4892C20.2029 18.3245 20.311 18.0962 20.3248 17.853C20.3385 17.6098 20.2567 17.3709 20.0969 17.187Z" fill="white"/>
</svg>