<svg xmlns="http://www.w3.org/2000/svg" width="28" height="28" viewBox="0 0 28 28" fill="none">
  <g opacity="0.8">
    <path d="M18.5815 5C17.6435 5.01494 16.726 5.28315 15.9215 5.77753C15.1171 6.27192 14.4543 6.97497 14 7.8157C13.5457 6.97497 12.8829 6.27192 12.0785 5.77753C11.2741 5.28315 10.3565 5.01494 9.41852 5C7.92324 5.06654 6.51444 5.73656 5.49991 6.86368C4.48539 7.99079 3.9476 9.48338 4.00403 11.0154C4.00403 14.895 7.99076 19.1322 11.3344 22.0051C12.081 22.6477 13.0249 23 14 23C14.9751 23 15.919 22.6477 16.6656 22.0051C20.0092 19.1322 23.996 14.895 23.996 11.0154C24.0524 9.48338 23.5146 7.99079 22.5001 6.86368C21.4856 5.73656 20.0768 5.06654 18.5815 5ZM15.5952 20.6996C15.1487 21.0848 14.5837 21.296 14 21.296C13.4163 21.296 12.8513 21.0848 12.4048 20.6996C8.12487 17.0213 5.67003 13.4923 5.67003 11.0154C5.61308 9.93576 5.97521 8.8769 6.67742 8.06971C7.37964 7.26251 8.36497 6.77248 9.41852 6.70648C10.4721 6.77248 11.4574 7.26251 12.1596 8.06971C12.8618 8.8769 13.2239 9.93576 13.167 11.0154C13.167 11.2416 13.2548 11.4587 13.411 11.6187C13.5672 11.7787 13.7791 11.8686 14 11.8686C14.2209 11.8686 14.4328 11.7787 14.589 11.6187C14.7452 11.4587 14.833 11.2416 14.833 11.0154C14.7761 9.93576 15.1382 8.8769 15.8404 8.06971C16.5426 7.26251 17.5279 6.77248 18.5815 6.70648C19.635 6.77248 20.6204 7.26251 21.3226 8.06971C22.0248 8.8769 22.3869 9.93576 22.33 11.0154C22.33 13.4923 19.8751 17.0213 15.5952 20.6962V20.6996Z" fill="#193025"/>
  </g>
</svg>