<svg width="24" height="24" viewBox="0 0 24 24" fill="none" xmlns="http://www.w3.org/2000/svg">
<g clip-path="url(#clip0_8_622)">
<path d="M23 10.9996H1C0.447715 10.9996 0 11.4474 0 11.9996C0 12.5519 0.447715 12.9996 1 12.9996H23C23.5523 12.9996 24 12.5519 24 11.9996C24 11.4474 23.5523 10.9996 23 10.9996Z" fill="#193025"/>
<path d="M23 4.00024H1C0.447715 4.00024 0 4.44796 0 5.00024C0 5.55253 0.447715 6.00024 1 6.00024H23C23.5523 6.00024 24 5.55253 24 5.00024C24 4.44796 23.5523 4.00024 23 4.00024Z" fill="#193025"/>
<path d="M23 17.9999H1C0.447715 17.9999 0 18.4477 0 18.9999C0 19.5522 0.447715 20 1 20H23C23.5523 20 24 19.5522 24 18.9999C24 18.4477 23.5523 17.9999 23 17.9999Z" fill="#193025"/>
</g>
<defs>
<clipPath id="clip0_8_622">
<rect width="24" height="24" fill="white"/>
</clipPath>
</defs>
</svg>
