<svg width="193" height="28" viewBox="0 0 193 28" fill="none" xmlns="http://www.w3.org/2000/svg">
<path d="M0 24.5V0H7V3.5H10.5V7H14V3.5H17.5V0H24.5V24.5H17.5V10.5H14V17.5H10.5V10.5H7V24.5H0ZM38.5 10.5H42V14H38.5V24.5H31.5V7H38.5V10.5ZM52.5 7V10.5H42V7H52.5ZM59.5 24.5V21H56V0H63V14H66.5V0H70V14H73.5V0H80.5V21H77V24.5H73.5V21H70V17.5H66.5V21H63V24.5H59.5ZM87.5 24.5V21H84V10.5H87.5V7H105V10.5H108.5V21H105V24.5H87.5ZM91 21H101.5V10.5H91V21ZM115.5 24.5V21H112V10.5H115.5V7H133V10.5H136.5V21H133V24.5H115.5ZM119 21H129.5V10.5H119V21ZM143.5 24.5V21H140V10.5H143.5V7H157.5V0H164.5V24.5H143.5ZM147 21H157.5V10.5H147V21ZM171.5 28V24.5H185.5V21H171.5V17.5H168V7H175V17.5H185.5V7H192.5V24.5H189V28H171.5Z" fill="url(#paint0_linear_46_281)"/>
<defs>
<linearGradient id="paint0_linear_46_281" x1="0" y1="0" x2="196.442" y2="24.4461" gradientUnits="userSpaceOnUse">
<stop stop-color="#7DE378"/>
<stop offset="1" stop-color="#07D491"/>
</linearGradient>
</defs>
</svg>
