<svg xmlns="http://www.w3.org/2000/svg" width="28" height="28" viewBox="0 0 28 28" fill="none">
  <g opacity="0.8">
    <path d="M21.1335 16.5924C20.3993 16.593 19.6762 16.7724 19.0267 17.1152C18.3772 17.4581 17.8208 17.9539 17.4055 18.5601L11.0845 15.7029C11.5335 14.6176 11.5352 13.3985 11.0894 12.3119L17.4016 9.44013C18.0171 10.3314 18.9314 10.9722 19.9785 11.2465C21.0256 11.5207 22.1362 11.4101 23.1089 10.9348C24.0816 10.4595 24.8518 9.65099 25.28 8.65584C25.7082 7.6607 25.7659 6.54488 25.4427 5.51078C25.1195 4.47668 24.4367 3.5928 23.5183 3.01947C22.5999 2.44614 21.5066 2.22134 20.4368 2.38583C19.367 2.55033 18.3915 3.09323 17.6873 3.91606C16.9831 4.73889 16.5968 5.78714 16.5985 6.87068C16.6026 7.12714 16.6286 7.38278 16.6762 7.63481L9.96581 10.6874C9.32132 10.0829 8.51449 9.6801 7.64445 9.52836C6.7744 9.37663 5.87902 9.48263 5.06833 9.83333C4.25763 10.184 3.56691 10.7642 3.08104 11.5025C2.59516 12.2407 2.33529 13.105 2.33335 13.9892C2.33141 14.8733 2.58749 15.7387 3.07012 16.4791C3.55274 17.2196 4.24091 17.8027 5.05006 18.157C5.85921 18.5112 6.75411 18.6212 7.62481 18.4733C8.49552 18.3254 9.30411 17.9261 9.95124 17.3244L16.6791 20.3654C16.6323 20.6172 16.6067 20.8725 16.6024 21.1285C16.6022 22.026 16.8678 22.9033 17.3658 23.6496C17.8637 24.3959 18.5715 24.9776 19.3997 25.3211C20.2279 25.6646 21.1392 25.7545 22.0185 25.5795C22.8977 25.4045 23.7053 24.9723 24.3392 24.3378C24.9731 23.7032 25.4048 22.8946 25.5796 22.0144C25.7545 21.1342 25.6646 20.2219 25.3215 19.3928C24.9783 18.5637 24.3973 17.8551 23.6518 17.3566C22.9064 16.8582 22.03 16.5922 21.1335 16.5924ZM21.1335 4.2779C21.6458 4.2777 22.1467 4.42961 22.5727 4.71439C22.9987 4.99917 23.3309 5.40404 23.527 5.87779C23.7232 6.35154 23.7746 6.87289 23.6748 7.37591C23.575 7.87892 23.3284 8.341 22.9662 8.70371C22.6041 9.06641 22.1426 9.31345 21.6401 9.41357C21.1377 9.51369 20.6169 9.4624 20.1436 9.26619C19.6703 9.06998 19.2658 8.73765 18.9811 8.31125C18.6965 7.88485 18.5446 7.38352 18.5446 6.87068C18.5451 6.18336 18.818 5.52432 19.3034 5.03822C19.7888 4.55212 20.447 4.27867 21.1335 4.2779ZM6.89128 16.5924C6.379 16.5926 5.87816 16.4407 5.45212 16.1559C5.02608 15.8711 4.69397 15.4663 4.49779 14.9925C4.30162 14.5187 4.25019 13.9974 4.35001 13.4944C4.44984 12.9914 4.69643 12.5293 5.0586 12.1666C5.42077 11.8039 5.88225 11.5568 6.38468 11.4567C6.8871 11.3566 7.40791 11.4079 7.88121 11.6041C8.35452 11.8003 8.75907 12.1326 9.0437 12.559C9.32833 12.9854 9.48025 13.4868 9.48025 13.9996C9.47948 14.6869 9.2065 15.3457 8.72117 15.8318C8.23584 16.3178 7.57777 16.5914 6.89128 16.5924ZM21.1335 23.7213C20.6213 23.7213 20.1206 23.5693 19.6946 23.2844C19.2687 22.9995 18.9368 22.5945 18.7407 22.1208C18.5447 21.647 18.4934 21.1257 18.5934 20.6227C18.6933 20.1198 18.94 19.6578 19.3022 19.2952C19.6644 18.9326 20.1259 18.6856 20.6283 18.5856C21.1307 18.4855 21.6514 18.5369 22.1247 18.7331C22.5979 18.9294 23.0024 19.2617 23.287 19.6881C23.5716 20.1145 23.7235 20.6157 23.7235 21.1285C23.723 21.816 23.4499 22.4752 22.9643 22.9614C22.4787 23.4475 21.8203 23.7208 21.1335 23.7213Z" fill="#193025"/>
  </g>
</svg>