<svg xmlns="http://www.w3.org/2000/svg" width="24" height="24" viewBox="0 0 24 24" fill="none">
  <path d="M20.4335 5.39741C20.2052 5.11612 19.9194 4.88988 19.5963 4.73477C19.2733 4.57967 18.921 4.49949 18.5644 4.49993H5.44273L5.40864 4.20744C5.33889 3.59947 5.05429 3.03892 4.60882 2.63205C4.16335 2.22518 3.58796 2.00028 2.99175 2H2.81158C2.59634 2 2.38991 2.0878 2.23771 2.24407C2.08551 2.40035 2 2.6123 2 2.83331C2 3.05432 2.08551 3.26628 2.23771 3.42255C2.38991 3.57883 2.59634 3.66662 2.81158 3.66662H2.99175C3.19054 3.66665 3.3824 3.74158 3.53095 3.87721C3.67949 4.01284 3.7744 4.19973 3.79765 4.40244L4.91439 14.1522C5.03033 15.1661 5.5048 16.1011 6.24775 16.7796C6.99069 17.4581 7.9504 17.8329 8.94471 17.8329H17.4201C17.6353 17.8329 17.8417 17.7451 17.9939 17.5888C18.1461 17.4326 18.2316 17.2206 18.2316 16.9996C18.2316 16.7786 18.1461 16.5666 17.9939 16.4104C17.8417 16.2541 17.6353 16.1663 17.4201 16.1663H8.94471C8.44238 16.1648 7.95279 16.0039 7.54305 15.7055C7.13331 15.4071 6.82348 14.9859 6.65604 14.4997H16.3301C17.2815 14.4997 18.2027 14.1565 18.9327 13.5301C19.6627 12.9036 20.1551 12.0336 20.3239 11.0723L20.961 7.44402C21.0246 7.08404 21.0103 6.7141 20.9191 6.36042C20.828 6.00673 20.6622 5.67797 20.4335 5.39741ZM19.3679 7.1482L18.7299 10.7764C18.6286 11.3539 18.3327 11.8764 17.8939 12.2524C17.4552 12.6284 16.9016 12.8339 16.3301 12.833H6.39796L5.63426 6.16656H18.5644C18.6836 6.16583 18.8015 6.19207 18.9097 6.24343C19.018 6.29479 19.1138 6.37001 19.1905 6.46372C19.2672 6.55744 19.3229 6.66735 19.3535 6.78565C19.3842 6.90396 19.3891 7.02774 19.3679 7.1482Z" fill="white"/>
  <path d="M7.68119 22C8.57764 22 9.30435 21.2538 9.30435 20.3334C9.30435 19.4129 8.57764 18.6668 7.68119 18.6668C6.78475 18.6668 6.05803 19.4129 6.05803 20.3334C6.05803 21.2538 6.78475 22 7.68119 22Z" fill="white"/>
  <path d="M15.7969 22C16.6933 22 17.42 21.2538 17.42 20.3334C17.42 19.4129 16.6933 18.6668 15.7969 18.6668C14.9004 18.6668 14.1737 19.4129 14.1737 20.3334C14.1737 21.2538 14.9004 22 15.7969 22Z" fill="white"/>
</svg>