<svg xmlns="http://www.w3.org/2000/svg" width="28" height="28" viewBox="0 0 28 28" fill="none">
  <g opacity="0.8">
    <path d="M24.6945 5.24993H22.75V3.30554C22.75 3.0477 22.6476 2.80042 22.4653 2.61809C22.2829 2.43577 22.0356 2.33334 21.7778 2.33334C21.52 2.33334 21.2727 2.43577 21.0903 2.61809C20.908 2.80042 20.8056 3.0477 20.8056 3.30554V5.24993H18.8611C18.6033 5.24993 18.356 5.35236 18.1737 5.53468C17.9914 5.717 17.8889 5.96429 17.8889 6.22213C17.8889 6.47997 17.9914 6.72725 18.1737 6.90957C18.356 7.0919 18.6033 7.19432 18.8611 7.19432H20.8056V9.13872C20.8056 9.39656 20.908 9.64384 21.0903 9.82616C21.2727 10.0085 21.52 10.1109 21.7778 10.1109C22.0356 10.1109 22.2829 10.0085 22.4653 9.82616C22.6476 9.64384 22.75 9.39656 22.75 9.13872V7.19432H24.6945C24.9523 7.19432 25.1996 7.0919 25.3819 6.90957C25.5642 6.72725 25.6667 6.47997 25.6667 6.22213C25.6667 5.96429 25.5642 5.717 25.3819 5.53468C25.1996 5.35236 24.9523 5.24993 24.6945 5.24993Z" fill="#193025"/>
    <path d="M9.13879 25.6667C10.2127 25.6667 11.0832 24.7961 11.0832 23.7223C11.0832 22.6484 10.2127 21.7779 9.13879 21.7779C8.06491 21.7779 7.19435 22.6484 7.19435 23.7223C7.19435 24.7961 8.06491 25.6667 9.13879 25.6667Z" fill="#193025"/>
    <path d="M18.8611 25.6667C19.9349 25.6667 20.8055 24.7961 20.8055 23.7223C20.8055 22.6484 19.9349 21.7779 18.8611 21.7779C17.7872 21.7779 16.9166 22.6484 16.9166 23.7223C16.9166 24.7961 17.7872 25.6667 18.8611 25.6667Z" fill="#193025"/>
    <path d="M23.4995 11.7889C23.3738 11.7654 23.2447 11.7671 23.1196 11.7938C22.9946 11.8206 22.8761 11.8719 22.771 11.9448C22.6659 12.0176 22.5763 12.1107 22.5075 12.2184C22.4386 12.3262 22.3918 12.4465 22.3698 12.5725C22.2485 13.2454 21.8947 13.8544 21.3701 14.2929C20.8456 14.7315 20.1836 14.9718 19.4998 14.9719H7.60082L6.68693 7.19433H14.9722C15.23 7.19433 15.4773 7.0919 15.6596 6.90958C15.842 6.72726 15.9444 6.47998 15.9444 6.22214C15.9444 5.96429 15.842 5.71701 15.6596 5.53469C15.4773 5.35237 15.23 5.24994 14.9722 5.24994H6.45749L6.41666 4.90773C6.33287 4.19861 5.99185 3.54486 5.45823 3.07038C4.92461 2.5959 4.23546 2.33366 3.52139 2.33335H3.30556C3.04771 2.33335 2.80042 2.43578 2.61809 2.6181C2.43577 2.80042 2.33334 3.0477 2.33334 3.30555C2.33334 3.56339 2.43577 3.81067 2.61809 3.99299C2.80042 4.17532 3.04771 4.27774 3.30556 4.27774H3.52139C3.75952 4.27777 3.98935 4.3652 4.1673 4.52343C4.34525 4.68167 4.45894 4.8997 4.4868 5.13619L5.82458 16.5109C5.96346 17.6938 6.53184 18.7846 7.42184 19.5762C8.31184 20.3678 9.46151 20.8051 10.6526 20.8051H20.8055C21.0634 20.8051 21.3106 20.7027 21.493 20.5203C21.6753 20.338 21.7777 20.0907 21.7777 19.8329C21.7777 19.575 21.6753 19.3278 21.493 19.1454C21.3106 18.9631 21.0634 18.8607 20.8055 18.8607H10.6526C10.0494 18.8608 9.46093 18.6739 8.96835 18.3256C8.47577 17.9774 8.10329 17.485 7.90221 16.9163H19.4998C20.6394 16.9164 21.7428 16.5162 22.6173 15.7855C23.4918 15.0548 24.0817 14.0401 24.2841 12.9186C24.3068 12.7929 24.3045 12.664 24.2774 12.5392C24.2502 12.4144 24.1988 12.2961 24.1259 12.1912C24.053 12.0863 23.9602 11.9968 23.8527 11.9277C23.7453 11.8587 23.6252 11.8115 23.4995 11.7889Z" fill="#193025"/>
  </g>
</svg>