<svg xmlns="http://www.w3.org/2000/svg" width="24" height="24" viewBox="0 0 24 24" fill="none">
  <path d="M12 12C12.9889 12 13.9556 11.7068 14.7778 11.1573C15.6001 10.6079 16.241 9.82705 16.6194 8.91342C16.9978 7.99979 17.0969 6.99445 16.9039 6.02455C16.711 5.05465 16.2348 4.16373 15.5355 3.46447C14.8363 2.76521 13.9454 2.289 12.9755 2.09608C12.0055 1.90315 11.0002 2.00217 10.0866 2.3806C9.17295 2.75904 8.39206 3.3999 7.84265 4.22215C7.29324 5.0444 7 6.01109 7 7C7.00132 8.32568 7.52853 9.59668 8.46593 10.5341C9.40332 11.4715 10.6743 11.9987 12 12ZM12 3.66667C12.6593 3.66667 13.3037 3.86217 13.8519 4.22844C14.4001 4.59471 14.8273 5.1153 15.0796 5.72439C15.3319 6.33348 15.3979 7.0037 15.2693 7.6503C15.1407 8.29691 14.8232 8.89085 14.357 9.35702C13.8908 9.8232 13.2969 10.1407 12.6503 10.2693C12.0037 10.3979 11.3335 10.3319 10.7244 10.0796C10.1153 9.82731 9.59471 9.40006 9.22843 8.8519C8.86216 8.30374 8.66667 7.65927 8.66667 7C8.66667 6.11595 9.01786 5.2681 9.64298 4.64298C10.2681 4.01786 11.1159 3.66667 12 3.66667Z" fill="white"/>
  <path d="M12 13C9.87899 13.0024 7.84553 13.8565 6.34574 15.3751C4.84596 16.8936 4.00235 18.9525 4 21.1C4 21.3387 4.09365 21.5676 4.26035 21.7364C4.42705 21.9052 4.65314 22 4.88889 22C5.12464 22 5.35073 21.9052 5.51743 21.7364C5.68413 21.5676 5.77778 21.3387 5.77778 21.1C5.77778 19.4291 6.43333 17.8267 7.60022 16.6452C8.76712 15.4637 10.3498 14.8 12 14.8C13.6502 14.8 15.2329 15.4637 16.3998 16.6452C17.5667 17.8267 18.2222 19.4291 18.2222 21.1C18.2222 21.3387 18.3159 21.5676 18.4826 21.7364C18.6493 21.9052 18.8754 22 19.1111 22C19.3469 22 19.573 21.9052 19.7397 21.7364C19.9064 21.5676 20 21.3387 20 21.1C19.9976 18.9525 19.154 16.8936 17.6543 15.3751C16.1545 13.8565 14.121 13.0024 12 13Z" fill="white"/>
</svg>